<svg xmlns="http://www.w3.org/2000/svg" width="950" height="600" style="background: rgb(255, 255, 255); border-radius: 8px; box-shadow: rgba(0, 0, 0, 0.15) 0px 4px 20px;"><rect width="950" height="600" fill="#ffffff" rx="8" ry="8"/><defs><linearGradient id="barGradient" x1="0%" y1="0%" x2="0%" y2="100%"><stop offset="0%" stop-color="#6a11cb"/><stop offset="100%" stop-color="#2575fc"/></linearGradient></defs><g transform="translate(80, 20)"><g class="grid"/><rect class="bar" x="5.2317880794702205" y="0" width="20.927152317880797" height="530" fill="#0400ff" rx="4" ry="4"/><rect class="bar" x="31.390728476821213" y="433.57277253911724" width="20.927152317880797" height="96.42722746088276" fill="#0400ff" rx="4" ry="4"/><rect class="bar" x="57.549668874172205" y="479.29766196368877" width="20.927152317880797" height="50.70233803631123" fill="#0400ff" rx="4" ry="4"/><rect class="bar" x="83.7086092715232" y="108.27656128142058" width="20.927152317880797" height="421.7234387185794" fill="#0400ff" rx="4" ry="4"/><rect class="bar" x="109.86754966887419" y="512.6936828843961" width="20.927152317880797" height="17.30631711560386" fill="#0400ff" rx="4" ry="4"/><rect class="bar" x="136.0264900662252" y="521.5039403574409" width="20.927152317880797" height="8.49605964255909" fill="#0400ff" rx="4" ry="4"/><rect class="bar" x="162.18543046357618" y="475.44115096613746" width="20.927152317880797" height="54.55884903386254" fill="#0400ff" rx="4" ry="4"/><rect class="bar" x="188.34437086092717" y="401.3002906865766" width="20.927152317880797" height="128.6997093134234" fill="#0400ff" rx="4" ry="4"/><rect class="bar" x="214.50331125827816" y="468.036834843122" width="20.927152317880797" height="61.963165156878006" fill="#0400ff" rx="4" ry="4"/><rect class="bar" x="240.66225165562915" y="524.0816921994557" width="20.927152317880797" height="5.918307800544312" fill="#0400ff" rx="4" ry="4"/><rect class="bar" x="266.82119205298017" y="515.9660229386068" width="20.927152317880797" height="14.033977061393216" fill="#0400ff" rx="4" ry="4"/><rect class="bar" x="292.98013245033115" y="504.3704754061704" width="20.927152317880797" height="25.629524593829615" fill="#0400ff" rx="4" ry="4"/><rect class="bar" x="319.13907284768214" y="515.9356726421937" width="20.927152317880797" height="14.064327357806292" fill="#0400ff" rx="4" ry="4"/><rect class="bar" x="345.29801324503313" y="487.0332298932695" width="20.927152317880797" height="42.96677010673051" fill="#0400ff" rx="4" ry="4"/><rect class="bar" x="371.4569536423841" y="517.0592117103606" width="20.927152317880797" height="12.940788289639386" fill="#0400ff" rx="4" ry="4"/><rect class="bar" x="397.6158940397351" y="516.6377761658822" width="20.927152317880797" height="13.362223834117799" fill="#0400ff" rx="4" ry="4"/><rect class="bar" x="423.7748344370861" y="516.6603221003605" width="20.927152317880797" height="13.339677899639469" fill="#0400ff" rx="4" ry="4"/><rect class="bar" x="449.9337748344371" y="521.7955922534481" width="20.927152317880797" height="8.204407746551851" fill="#0400ff" rx="4" ry="4"/><rect class="bar" x="476.0927152317881" y="484.49189840695027" width="20.927152317880797" height="45.50810159304973" fill="#0400ff" rx="4" ry="4"/><rect class="bar" x="502.25165562913907" y="517.0135417405199" width="20.927152317880797" height="12.98645825948006" fill="#0400ff" rx="4" ry="4"/><rect class="bar" x="528.4105960264901" y="500.7041595994743" width="20.927152317880797" height="29.29584040052572" fill="#0400ff" rx="4" ry="4"/><rect class="bar" x="554.5695364238411" y="489.28204233225534" width="20.927152317880797" height="40.717957667744656" fill="#0400ff" rx="4" ry="4"/><rect class="bar" x="580.7284768211921" y="523.8137424396948" width="20.927152317880797" height="6.186257560305194" fill="#0400ff" rx="4" ry="4"/><rect class="bar" x="606.8874172185431" y="522.1887008546076" width="20.927152317880797" height="7.811299145392354" fill="#0400ff" rx="4" ry="4"/><rect class="bar" x="633.0463576158941" y="461.6306098964327" width="20.927152317880797" height="68.3693901035673" fill="#0400ff" rx="4" ry="4"/><rect class="bar" x="659.205298013245" y="455.16946536575784" width="20.927152317880797" height="74.83053463424216" fill="#0400ff" rx="4" ry="4"/><rect class="bar" x="685.364238410596" y="506.2602871961562" width="20.927152317880797" height="23.739712803843815" fill="#0400ff" rx="4" ry="4"/><rect class="bar" x="711.523178807947" y="525.7249439623907" width="20.927152317880797" height="4.275056037609261" fill="#0400ff" rx="4" ry="4"/><rect class="bar" x="737.682119205298" y="501.2143336296555" width="20.927152317880797" height="28.785666370344472" fill="#0400ff" rx="4" ry="4"/><rect class="bar" x="763.841059602649" y="505.6587732262938" width="20.927152317880797" height="24.341226773706182" fill="#0400ff" rx="4" ry="4"/><path fill="none" stroke="#ff1800" stroke-width="3" d="M15.695364238410619,0C24.415011037527613,90.78898693801274,33.134657836644614,181.57797387602548,41.85430463576161,234.92970782070307C50.57395143487861,288.2814417653807,59.29359823399561,291.40851910362176,68.01324503311261,320.1104036680656C76.73289183222961,348.8122882325094,85.4525386313466,387.5551103451578,94.1721854304636,407.14101520736597C102.8918322295806,426.72692006957413,111.61147902869759,429.2630881396021,120.33112582781459,437.62583284131466C129.0507726269316,445.98857754302725,137.7704194260486,457.3174834176414,146.4900662251656,457.3174834176414C155.2097130242826,457.3174834176414,163.9293598233996,457.0436609379737,172.6490066225166,456.6357604480827C181.36865342163358,456.2278599581917,190.0883002207506,454.87008047829534,198.80794701986758,454.87008047829534C207.52759381898457,454.87008047829534,216.24724061810159,489.02896261190097,224.96688741721857,492.0918952558763C233.68653421633556,495.1548278998516,242.40618101545257,495.6017170121436,251.12582781456956,496.68629422183926C259.8454746136866,497.77087143153494,268.56512141280353,498.5993585140505,277.28476821192055,498.5993585140505C286.00441501103757,498.5993585140505,294.7240618101545,485.70029840266807,303.44370860927154,485.70029840266807C312.16335540838855,485.70029840266807,320.8830022075055,498.77735863107114,329.6026490066225,498.77735863107114C338.32229580573954,498.77735863107114,347.0419426048565,492.50104556181435,355.7615894039735,490.1894309072824C364.48123620309053,487.8778162527504,373.2008830022075,484.9076707038792,381.9205298013245,484.9076707038792C390.6401766004415,484.9076707038792,399.3598233995585,506.7423705193058,408.0794701986755,506.7423705193058C416.7991169977925,506.7423705193058,425.51876379690947,485.7649693352695,434.2384105960265,485.7649693352695C442.9580573951435,485.7649693352695,451.67770419426046,501.79355003430834,460.3973509933775,501.79355003430834C469.1169977924945,501.79355003430834,477.83664459161145,497.35893958010865,486.55629139072846,497.35893958010865C495.2759381898455,497.35893958010865,503.99558498896243,512.1975074600667,512.7152317880794,512.1975074600667C521.4348785871965,512.1975074600667,530.1545253863135,504.7725852522061,538.8741721854306,504.7725852522061C547.5938189845475,504.7725852522061,556.3134657836646,506.7155323641895,565.0331125827815,506.7155323641895C573.7527593818985,506.7155323641895,582.4724061810156,506.23883560903045,591.1920529801325,505.865958159797C599.9116997792495,505.49308071056356,608.6313465783666,504.478267668789,617.3509933774835,504.478267668789C626.0706401766005,504.478267668789,634.7902869757175,513.9154688893499,643.5099337748345,515.7788788357509C652.2295805739515,517.6422887821519,660.9492273730685,518.5739937553524,669.6688741721855,518.5739937553524C678.3885209713025,518.5739937553524,687.1081677704195,510.2141339673725,695.8278145695365,510.2141339673725C704.5474613686534,510.2141339673725,713.2671081677705,520.6704709017505,721.9867549668875,520.6704709017505C730.7064017660044,520.6704709017505,739.4260485651215,515.7407453506453,748.1456953642385,515.3906840921059C756.8653421633554,515.0406228335664,765.5849889624725,514.9531075189316,774.3046357615895,514.8655922042967"/><g transform="translate(0,530)" fill="none" font-size="10" font-family="sans-serif" text-anchor="middle" color="#555"><path class="domain" stroke="currentColor" d="M0.5,6V0.5H790.5V6"/><g class="tick" opacity="1" transform="translate(15.695364238410619,0)"><line stroke="currentColor" y2="6"/><text fill="currentColor" y="9" dy="0.71em" style="font-size: 12px; font-family: Roboto, sans-serif;">China</text></g><g class="tick" opacity="1" transform="translate(41.85430463576161,0)"><line stroke="currentColor" y2="6"/><text fill="currentColor" y="9" dy="0.71em" style="font-size: 12px; font-family: Roboto, sans-serif;">European Union</text></g><g class="tick" opacity="1" transform="translate(68.01324503311261,0)"><line stroke="currentColor" y2="6"/><text fill="currentColor" y="9" dy="0.71em" style="font-size: 12px; font-family: Roboto, sans-serif;">United States</text></g><g class="tick" opacity="1" transform="translate(94.1721854304636,0)"><line stroke="currentColor" y2="6"/><text fill="currentColor" y="9" dy="0.71em" style="font-size: 12px; font-family: Roboto, sans-serif;">India</text></g><g class="tick" opacity="1" transform="translate(120.33112582781459,0)"><line stroke="currentColor" y2="6"/><text fill="currentColor" y="9" dy="0.71em" style="font-size: 12px; font-family: Roboto, sans-serif;">Japan</text></g><g class="tick" opacity="1" transform="translate(146.4900662251656,0)"><line stroke="currentColor" y2="6"/><text fill="currentColor" y="9" dy="0.71em" style="font-size: 12px; font-family: Roboto, sans-serif;">Germany</text></g><g class="tick" opacity="1" transform="translate(172.6490066225166,0)"><line stroke="currentColor" y2="6"/><text fill="currentColor" y="9" dy="0.71em" style="font-size: 12px; font-family: Roboto, sans-serif;">Russia</text></g><g class="tick" opacity="1" transform="translate(198.80794701986758,0)"><line stroke="currentColor" y2="6"/><text fill="currentColor" y="9" dy="0.71em" style="font-size: 12px; font-family: Roboto, sans-serif;">Indonesia</text></g><g class="tick" opacity="1" transform="translate(224.96688741721857,0)"><line stroke="currentColor" y2="6"/><text fill="currentColor" y="9" dy="0.71em" style="font-size: 12px; font-family: Roboto, sans-serif;">Brazil</text></g><g class="tick" opacity="1" transform="translate(251.12582781456956,0)"><line stroke="currentColor" y2="6"/><text fill="currentColor" y="9" dy="0.71em" style="font-size: 12px; font-family: Roboto, sans-serif;">United Kingdom</text></g><g class="tick" opacity="1" transform="translate(277.28476821192055,0)"><line stroke="currentColor" y2="6"/><text fill="currentColor" y="9" dy="0.71em" style="font-size: 12px; font-family: Roboto, sans-serif;">France</text></g><g class="tick" opacity="1" transform="translate(303.44370860927154,0)"><line stroke="currentColor" y2="6"/><text fill="currentColor" y="9" dy="0.71em" style="font-size: 12px; font-family: Roboto, sans-serif;">Mexico</text></g><g class="tick" opacity="1" transform="translate(329.6026490066225,0)"><line stroke="currentColor" y2="6"/><text fill="currentColor" y="9" dy="0.71em" style="font-size: 12px; font-family: Roboto, sans-serif;">Italy</text></g><g class="tick" opacity="1" transform="translate(355.7615894039735,0)"><line stroke="currentColor" y2="6"/><text fill="currentColor" y="9" dy="0.71em" style="font-size: 12px; font-family: Roboto, sans-serif;">Turkey</text></g><g class="tick" opacity="1" transform="translate(381.9205298013245,0)"><line stroke="currentColor" y2="6"/><text fill="currentColor" y="9" dy="0.71em" style="font-size: 12px; font-family: Roboto, sans-serif;">Korea, South</text></g><g class="tick" opacity="1" transform="translate(408.0794701986755,0)"><line stroke="currentColor" y2="6"/><text fill="currentColor" y="9" dy="0.71em" style="font-size: 12px; font-family: Roboto, sans-serif;">Spain</text></g><g class="tick" opacity="1" transform="translate(434.2384105960265,0)"><line stroke="currentColor" y2="6"/><text fill="currentColor" y="9" dy="0.71em" style="font-size: 12px; font-family: Roboto, sans-serif;">Saudi Arabia</text></g><g class="tick" opacity="1" transform="translate(460.3973509933775,0)"><line stroke="currentColor" y2="6"/><text fill="currentColor" y="9" dy="0.71em" style="font-size: 12px; font-family: Roboto, sans-serif;">Canada</text></g><g class="tick" opacity="1" transform="translate(486.55629139072846,0)"><line stroke="currentColor" y2="6"/><text fill="currentColor" y="9" dy="0.71em" style="font-size: 12px; font-family: Roboto, sans-serif;">Iran</text></g><g class="tick" opacity="1" transform="translate(512.7152317880794,0)"><line stroke="currentColor" y2="6"/><text fill="currentColor" y="9" dy="0.71em" style="font-size: 12px; font-family: Roboto, sans-serif;">Australia</text></g><g class="tick" opacity="1" transform="translate(538.8741721854306,0)"><line stroke="currentColor" y2="6"/><text fill="currentColor" y="9" dy="0.71em" style="font-size: 12px; font-family: Roboto, sans-serif;">Thailand</text></g><g class="tick" opacity="1" transform="translate(565.0331125827815,0)"><line stroke="currentColor" y2="6"/><text fill="currentColor" y="9" dy="0.71em" style="font-size: 12px; font-family: Roboto, sans-serif;">Egypt</text></g><g class="tick" opacity="1" transform="translate(591.1920529801325,0)"><line stroke="currentColor" y2="6"/><text fill="currentColor" y="9" dy="0.71em" style="font-size: 12px; font-family: Roboto, sans-serif;">Taiwan</text></g><g class="tick" opacity="1" transform="translate(617.3509933774835,0)"><line stroke="currentColor" y2="6"/><text fill="currentColor" y="9" dy="0.71em" style="font-size: 12px; font-family: Roboto, sans-serif;">Poland</text></g><g class="tick" opacity="1" transform="translate(643.5099337748345,0)"><line stroke="currentColor" y2="6"/><text fill="currentColor" y="9" dy="0.71em" style="font-size: 12px; font-family: Roboto, sans-serif;">Nigeria</text></g><g class="tick" opacity="1" transform="translate(669.6688741721855,0)"><line stroke="currentColor" y2="6"/><text fill="currentColor" y="9" dy="0.71em" style="font-size: 12px; font-family: Roboto, sans-serif;">Pakistan</text></g><g class="tick" opacity="1" transform="translate(695.8278145695365,0)"><line stroke="currentColor" y2="6"/><text fill="currentColor" y="9" dy="0.71em" style="font-size: 12px; font-family: Roboto, sans-serif;">Malaysia</text></g><g class="tick" opacity="1" transform="translate(721.9867549668875,0)"><line stroke="currentColor" y2="6"/><text fill="currentColor" y="9" dy="0.71em" style="font-size: 12px; font-family: Roboto, sans-serif;">Netherlands</text></g><g class="tick" opacity="1" transform="translate(748.1456953642385,0)"><line stroke="currentColor" y2="6"/><text fill="currentColor" y="9" dy="0.71em" style="font-size: 12px; font-family: Roboto, sans-serif;">Argentina</text></g><g class="tick" opacity="1" transform="translate(774.3046357615895,0)"><line stroke="currentColor" y2="6"/><text fill="currentColor" y="9" dy="0.71em" style="font-size: 12px; font-family: Roboto, sans-serif;">Philippines</text></g></g><g fill="none" font-size="10" font-family="sans-serif" text-anchor="end" color="#555"><path class="domain" stroke="currentColor" d="M-6,530.5H0.5V0.5H-6"/><g class="tick" opacity="1" transform="translate(0,530.5)"><line stroke="currentColor" x2="-6"/><text fill="currentColor" x="-9" dy="0.32em" style="font-size: 12px; font-family: Roboto, sans-serif;">0</text></g><g class="tick" opacity="1" transform="translate(0,472.689911594195)"><line stroke="currentColor" x2="-6"/><text fill="currentColor" x="-9" dy="0.32em" style="font-size: 12px; font-family: Roboto, sans-serif;">200,000</text></g><g class="tick" opacity="1" transform="translate(0,414.87982318838993)"><line stroke="currentColor" x2="-6"/><text fill="currentColor" x="-9" dy="0.32em" style="font-size: 12px; font-family: Roboto, sans-serif;">400,000</text></g><g class="tick" opacity="1" transform="translate(0,357.069734782585)"><line stroke="currentColor" x2="-6"/><text fill="currentColor" x="-9" dy="0.32em" style="font-size: 12px; font-family: Roboto, sans-serif;">600,000</text></g><g class="tick" opacity="1" transform="translate(0,299.25964637678)"><line stroke="currentColor" x2="-6"/><text fill="currentColor" x="-9" dy="0.32em" style="font-size: 12px; font-family: Roboto, sans-serif;">800,000</text></g><g class="tick" opacity="1" transform="translate(0,241.449557970975)"><line stroke="currentColor" x2="-6"/><text fill="currentColor" x="-9" dy="0.32em" style="font-size: 12px; font-family: Roboto, sans-serif;">1,000,000</text></g><g class="tick" opacity="1" transform="translate(0,183.63946956516997)"><line stroke="currentColor" x2="-6"/><text fill="currentColor" x="-9" dy="0.32em" style="font-size: 12px; font-family: Roboto, sans-serif;">1,200,000</text></g><g class="tick" opacity="1" transform="translate(0,125.82938115936496)"><line stroke="currentColor" x2="-6"/><text fill="currentColor" x="-9" dy="0.32em" style="font-size: 12px; font-family: Roboto, sans-serif;">1,400,000</text></g><g class="tick" opacity="1" transform="translate(0,68.01929275355992)"><line stroke="currentColor" x2="-6"/><text fill="currentColor" x="-9" dy="0.32em" style="font-size: 12px; font-family: Roboto, sans-serif;">1,600,000</text></g><g class="tick" opacity="1" transform="translate(0,10.209204347754966)"><line stroke="currentColor" x2="-6"/><text fill="currentColor" x="-9" dy="0.32em" style="font-size: 12px; font-family: Roboto, sans-serif;">1,800,000</text></g></g><g transform="translate(790, 0)" fill="none" font-size="10" font-family="sans-serif" text-anchor="start" color="#555"><path class="domain" stroke="currentColor" d="M6,530.5H0.5V0.5H6"/><g class="tick" opacity="1" transform="translate(0,530.5)"><line stroke="currentColor" x2="6"/><text fill="currentColor" x="9" dy="0.32em" style="font-size: 12px; font-family: Roboto, sans-serif;">0</text></g><g class="tick" opacity="1" transform="translate(0,474.1173211844618)"><line stroke="currentColor" x2="6"/><text fill="currentColor" x="9" dy="0.32em" style="font-size: 12px; font-family: Roboto, sans-serif;">1,000,000</text></g><g class="tick" opacity="1" transform="translate(0,417.7346423689236)"><line stroke="currentColor" x2="6"/><text fill="currentColor" x="9" dy="0.32em" style="font-size: 12px; font-family: Roboto, sans-serif;">2,000,000</text></g><g class="tick" opacity="1" transform="translate(0,361.3519635533854)"><line stroke="currentColor" x2="6"/><text fill="currentColor" x="9" dy="0.32em" style="font-size: 12px; font-family: Roboto, sans-serif;">3,000,000</text></g><g class="tick" opacity="1" transform="translate(0,304.96928473784715)"><line stroke="currentColor" x2="6"/><text fill="currentColor" x="9" dy="0.32em" style="font-size: 12px; font-family: Roboto, sans-serif;">4,000,000</text></g><g class="tick" opacity="1" transform="translate(0,248.5866059223089)"><line stroke="currentColor" x2="6"/><text fill="currentColor" x="9" dy="0.32em" style="font-size: 12px; font-family: Roboto, sans-serif;">5,000,000</text></g><g class="tick" opacity="1" transform="translate(0,192.20392710677072)"><line stroke="currentColor" x2="6"/><text fill="currentColor" x="9" dy="0.32em" style="font-size: 12px; font-family: Roboto, sans-serif;">6,000,000</text></g><g class="tick" opacity="1" transform="translate(0,135.82124829123248)"><line stroke="currentColor" x2="6"/><text fill="currentColor" x="9" dy="0.32em" style="font-size: 12px; font-family: Roboto, sans-serif;">7,000,000</text></g><g class="tick" opacity="1" transform="translate(0,79.43856947569425)"><line stroke="currentColor" x2="6"/><text fill="currentColor" x="9" dy="0.32em" style="font-size: 12px; font-family: Roboto, sans-serif;">8,000,000</text></g><g class="tick" opacity="1" transform="translate(0,23.055890660156066)"><line stroke="currentColor" x2="6"/><text fill="currentColor" x="9" dy="0.32em" style="font-size: 12px; font-family: Roboto, sans-serif;">9,000,000</text></g></g></g></svg>